# This file uses centimeters as units for non-parametric coordinates.

v -0.070000 0.028607 -0.015048
v 0.001976 0.028607 -0.015048
v -0.070000 -0.013590 -0.015048
v 0.001976 -0.013590 -0.015048
v -0.070001 -0.013590 0.012013
v 0.001976 -0.013590 0.012013
v -0.070001 0.028607 0.012013
v 0.001976 0.028607 0.012013
v -0.006300 0.007998 -0.007998
v 0.016877 0.007998 -0.007998
v -0.006300 -0.007998 -0.007998
v 0.016877 -0.007998 -0.007998
v -0.006300 -0.007998 0.007998
v 0.016877 -0.007998 0.007998
v -0.006300 0.007998 0.007998
v 0.016877 0.007998 0.007998
v 0.029785 0.015137 0.015137
v 0.029785 0.015137 -0.015137
v 0.029785 -0.015137 0.015137
v 0.029785 -0.015137 -0.015137
v -0.075451 -0.010007 0.006928
v -0.049647 -0.000535 0.006928
v -0.071192 -0.021610 0.006928
v -0.045388 -0.012138 0.006928
v -0.071192 -0.021610 0.019288
v -0.045388 -0.012138 0.019288
v -0.075451 -0.010007 0.019288
v -0.049647 -0.000534 0.019288
v -0.079445 -0.009398 0.021236
v -0.079445 -0.009398 0.004980
v -0.073843 -0.024658 0.004980
v -0.073843 -0.024658 0.021236
vt 0.375000 0.000000
vt 0.625000 0.000000
vt 0.375000 0.250000
vt 0.625000 0.250000
vt 0.375000 0.500000
vt 0.625000 0.500000
vt 0.375000 0.750000
vt 0.625000 0.750000
vt 0.375000 1.000000
vt 0.625000 1.000000
vt 0.875000 0.000000
vt 0.875000 0.250000
vt 0.125000 0.000000
vt 0.125000 0.250000
vt 0.375000 0.000000
vt 0.625000 0.000000
vt 0.625000 0.250000
vt 0.375000 0.250000
vt 0.625000 0.500000
vt 0.375000 0.500000
vt 0.625000 0.750000
vt 0.375000 0.750000
vt 0.625000 1.000000
vt 0.375000 1.000000
vt 0.625000 0.000000
vt 0.875000 0.000000
vt 0.875000 0.250000
vt 0.625000 0.250000
vt 0.875000 0.000000
vt 0.875000 0.250000
vt 0.375000 0.000000
vt 0.625000 0.000000
vt 0.625000 0.250000
vt 0.375000 0.250000
vt 0.625000 0.500000
vt 0.375000 0.500000
vt 0.625000 0.750000
vt 0.375000 0.750000
vt 0.625000 1.000000
vt 0.375000 1.000000
vt 0.875000 0.000000
vt 0.875000 0.250000
vt 0.125000 0.000000
vt 0.375000 0.000000
vt 0.375000 0.250000
vt 0.125000 0.250000
vt 0.125000 0.000000
vt 0.125000 0.250000
vn 0.000000 -0.000001 -1.000000
vn 0.000000 -0.000001 -1.000000
vn 0.000000 -0.000001 -1.000000
vn 0.000000 -0.000001 -1.000000
vn 0.000001 -1.000000 -0.000000
vn 0.000001 -1.000000 -0.000000
vn 0.000001 -1.000000 -0.000000
vn 0.000001 -1.000000 -0.000000
vn 0.000000 0.000000 1.000000
vn 0.000000 0.000000 1.000000
vn 0.000000 0.000000 1.000000
vn 0.000000 0.000000 1.000000
vn 0.000000 1.000000 0.000000
vn 0.000000 1.000000 0.000000
vn 0.000000 1.000000 0.000000
vn 0.000000 1.000000 0.000000
vn 1.000000 -0.000000 0.000000
vn 1.000000 -0.000000 0.000000
vn 1.000000 -0.000000 0.000000
vn 1.000000 -0.000000 0.000000
vn -1.000000 0.000000 -0.000009
vn -1.000000 0.000000 -0.000009
vn -1.000000 0.000000 -0.000009
vn -1.000000 0.000000 -0.000009
vn 0.000000 0.000000 -1.000000
vn 0.000000 0.000000 -1.000000
vn 0.000000 0.000000 -1.000000
vn 0.000000 0.000000 -1.000000
vn -0.000002 -1.000000 0.000000
vn -0.000002 -1.000000 0.000000
vn -0.000002 -1.000000 0.000000
vn -0.000002 -1.000000 0.000000
vn 0.000000 0.000000 1.000000
vn 0.000000 0.000000 1.000000
vn 0.000000 0.000000 1.000000
vn 0.000000 0.000000 1.000000
vn -0.000001 1.000000 0.000000
vn -0.000001 1.000000 0.000000
vn -0.000001 1.000000 0.000000
vn -0.000001 1.000000 0.000000
vn -0.483962 0.875089 0.000000
vn -0.483962 0.875089 0.000000
vn -0.483962 0.875089 0.000000
vn -0.483962 0.875089 0.000000
vn -0.483962 0.000001 0.875089
vn -0.483962 0.000001 0.875089
vn -0.483962 0.000001 0.875089
vn -0.483962 0.000001 0.875089
vn -0.483962 -0.875089 0.000000
vn -0.483962 -0.875089 0.000000
vn -0.483962 -0.875089 0.000000
vn -0.483962 -0.875089 0.000000
vn -0.483962 0.000000 -0.875089
vn -0.483962 0.000000 -0.875089
vn -0.483962 0.000000 -0.875089
vn -0.483962 0.000000 -0.875089
vn 0.233653 0.085772 -0.968530
vn 0.000000 0.000000 -1.000000
vn 0.000000 0.000000 -1.000000
vn 0.233653 0.085772 -0.968530
vn 0.567414 -0.823433 0.000000
vn 0.344609 -0.938746 0.000000
vn 0.344609 -0.938746 0.000000
vn 0.567414 -0.823433 0.000000
vn 0.233667 0.085777 0.968526
vn -0.000000 -0.000001 1.000000
vn -0.000000 -0.000001 1.000000
vn 0.233667 0.085777 0.968526
vn -0.100091 0.994978 -0.000004
vn -0.344608 0.938747 -0.000007
vn -0.344608 0.938747 -0.000007
vn -0.100091 0.994978 -0.000004
vn 0.938750 0.344599 -0.000001
vn 0.938750 0.344599 -0.000001
vn 0.938750 0.344599 -0.000001
vn 0.938750 0.344599 -0.000001
vn -0.938747 -0.344608 0.000007
vn -0.938747 -0.344608 0.000007
vn -0.938747 -0.344608 0.000007
vn -0.938747 -0.344608 0.000007
vn 0.150727 0.988575 -0.000001
vn 0.150727 0.988575 -0.000001
vn 0.452599 0.166146 -0.876099
vn 0.452599 0.166146 -0.876099
vn 0.754506 -0.656293 0.000000
vn 0.754506 -0.656293 0.000000
vn 0.452625 0.166155 0.876084
vn 0.452625 0.166155 0.876084
vn 1.000000 0.000000 0.000000
vn 1.000000 0.000000 0.000000
vn 1.000000 0.000000 0.000000
vn 1.000000 0.000000 0.000000
f 1/1/1 2/2/2 4/4/3 3/3/4
f 3/3/5 4/4/6 6/6/7 5/5/8
f 5/5/9 6/6/10 8/8/11 7/7/12
f 7/7/13 8/8/14 2/10/15 1/9/16
f 2/2/17 8/11/18 6/12/19 4/4/20
f 7/13/21 1/1/22 3/3/23 5/14/24
f 9/15/25 10/16/26 12/17/27 11/18/28
f 11/18/29 12/17/30 14/19/31 13/20/32
f 13/20/33 14/19/34 16/21/35 15/22/36
f 15/22/37 16/21/38 10/23/39 9/24/40
f 10/16/41 16/29/42 17/26/43 18/25/44
f 16/29/45 14/30/46 19/27/47 17/26/48
f 14/30/49 12/17/50 20/28/51 19/27/52
f 12/17/53 10/16/54 18/25/55 20/28/56
f 21/31/57 22/32/58 24/33/59 23/34/60
f 23/34/61 24/33/62 26/35/63 25/36/64
f 25/36/65 26/35/66 28/37/67 27/38/68
f 27/38/69 28/37/70 22/39/71 21/40/72
f 22/32/73 28/41/74 26/42/75 24/33/76
f 29/43/77 30/44/78 31/45/79 32/46/80
f 27/47/69 21/31/72 30/44/81 29/43/82
f 21/31/57 23/34/60 31/45/83 30/44/84
f 23/34/61 25/48/64 32/46/85 31/45/86
f 25/48/65 27/47/68 29/43/87 32/46/88
f 19/27/89 20/28/90 18/25/91 17/26/92
