# This file uses centimeters as units for non-parametric coordinates.

v -0.046667 0.019071 -0.010032
v 0.001317 0.019071 -0.010032
v -0.046667 -0.009060 -0.010032
v 0.001317 -0.009060 -0.010032
v -0.046667 -0.009060 0.008009
v 0.001317 -0.009060 0.008009
v -0.046667 0.019071 0.008009
v 0.001317 0.019071 0.008009
v -0.004200 0.005332 -0.005332
v 0.011251 0.005332 -0.005332
v -0.004200 -0.005332 -0.005332
v 0.011251 -0.005332 -0.005332
v -0.004200 -0.005332 0.005332
v 0.011251 -0.005332 0.005332
v -0.004200 0.005332 0.005332
v 0.011251 0.005332 0.005332
v 0.019857 0.010091 0.010091
v 0.019857 0.010091 -0.010091
v 0.019857 -0.010091 0.010091
v 0.019857 -0.010091 -0.010091
v -0.050301 -0.006671 0.004619
v -0.033098 -0.000356 0.004619
v -0.047461 -0.014407 0.004619
v -0.030258 -0.008092 0.004619
v -0.047461 -0.014407 0.012859
v -0.030258 -0.008092 0.012859
v -0.050301 -0.006671 0.012859
v -0.033098 -0.000356 0.012859
v -0.052963 -0.006265 0.014157
v -0.052963 -0.006265 0.003320
v -0.049229 -0.016439 0.003320
v -0.049229 -0.016439 0.014157
vt 0.375000 0.000000
vt 0.625000 0.000000
vt 0.375000 0.250000
vt 0.625000 0.250000
vt 0.375000 0.500000
vt 0.625000 0.500000
vt 0.375000 0.750000
vt 0.625000 0.750000
vt 0.375000 1.000000
vt 0.625000 1.000000
vt 0.875000 0.000000
vt 0.875000 0.250000
vt 0.125000 0.000000
vt 0.125000 0.250000
vt 0.375000 0.000000
vt 0.625000 0.000000
vt 0.625000 0.250000
vt 0.375000 0.250000
vt 0.625000 0.500000
vt 0.375000 0.500000
vt 0.625000 0.750000
vt 0.375000 0.750000
vt 0.625000 1.000000
vt 0.375000 1.000000
vt 0.625000 0.000000
vt 0.875000 0.000000
vt 0.875000 0.250000
vt 0.625000 0.250000
vt 0.875000 0.000000
vt 0.875000 0.250000
vt 0.375000 0.000000
vt 0.625000 0.000000
vt 0.625000 0.250000
vt 0.375000 0.250000
vt 0.625000 0.500000
vt 0.375000 0.500000
vt 0.625000 0.750000
vt 0.375000 0.750000
vt 0.625000 1.000000
vt 0.375000 1.000000
vt 0.875000 0.000000
vt 0.875000 0.250000
vt 0.125000 0.000000
vt 0.375000 0.000000
vt 0.375000 0.250000
vt 0.125000 0.250000
vt 0.125000 0.000000
vt 0.125000 0.250000
vn -0.000000 -0.000001 -1.000000
vn -0.000000 -0.000001 -1.000000
vn -0.000000 -0.000001 -1.000000
vn -0.000000 -0.000001 -1.000000
vn 0.000001 -1.000000 0.000000
vn 0.000001 -1.000000 0.000000
vn 0.000001 -1.000000 0.000000
vn 0.000001 -1.000000 0.000000
vn 0.000000 0.000000 1.000000
vn 0.000000 0.000000 1.000000
vn 0.000000 0.000000 1.000000
vn 0.000000 0.000000 1.000000
vn 0.000000 1.000000 0.000000
vn 0.000000 1.000000 0.000000
vn 0.000000 1.000000 0.000000
vn 0.000000 1.000000 0.000000
vn 1.000000 0.000000 0.000000
vn 1.000000 0.000000 0.000000
vn 1.000000 0.000000 0.000000
vn 1.000000 0.000000 0.000000
vn -1.000000 0.000000 -0.000007
vn -1.000000 0.000000 -0.000007
vn -1.000000 0.000000 -0.000007
vn -1.000000 0.000000 -0.000007
vn 0.000000 0.000000 -1.000000
vn 0.000000 0.000000 -1.000000
vn 0.000000 0.000000 -1.000000
vn 0.000000 0.000000 -1.000000
vn -0.000002 -1.000000 0.000000
vn -0.000002 -1.000000 0.000000
vn -0.000002 -1.000000 0.000000
vn -0.000002 -1.000000 0.000000
vn 0.000000 0.000000 1.000000
vn 0.000000 0.000000 1.000000
vn 0.000000 0.000000 1.000000
vn 0.000000 0.000000 1.000000
vn -0.000001 1.000000 0.000000
vn -0.000001 1.000000 0.000000
vn -0.000001 1.000000 0.000000
vn -0.000001 1.000000 0.000000
vn -0.483962 0.875089 0.000000
vn -0.483962 0.875089 0.000000
vn -0.483962 0.875089 0.000000
vn -0.483962 0.875089 0.000000
vn -0.483962 0.000001 0.875089
vn -0.483962 0.000001 0.875089
vn -0.483962 0.000001 0.875089
vn -0.483962 0.000001 0.875089
vn -0.483963 -0.875089 0.000000
vn -0.483963 -0.875089 0.000000
vn -0.483963 -0.875089 0.000000
vn -0.483963 -0.875089 0.000000
vn -0.483963 0.000000 -0.875089
vn -0.483963 0.000000 -0.875089
vn -0.483963 0.000000 -0.875089
vn -0.483963 0.000000 -0.875089
vn 0.233651 0.085773 -0.968530
vn 0.000000 0.000000 -1.000000
vn 0.000000 0.000000 -1.000000
vn 0.233651 0.085773 -0.968530
vn 0.567414 -0.823433 0.000000
vn 0.344609 -0.938746 0.000000
vn 0.344609 -0.938746 0.000000
vn 0.567414 -0.823433 0.000000
vn 0.233668 0.085779 0.968525
vn 0.000000 0.000000 1.000000
vn 0.000000 0.000000 1.000000
vn 0.233668 0.085779 0.968525
vn -0.100089 0.994979 -0.000005
vn -0.344607 0.938747 -0.000008
vn -0.344607 0.938747 -0.000008
vn -0.100089 0.994979 -0.000005
vn 0.938750 0.344600 -0.000001
vn 0.938750 0.344600 -0.000001
vn 0.938750 0.344600 -0.000001
vn 0.938750 0.344600 -0.000001
vn -0.938746 -0.344611 0.000010
vn -0.938746 -0.344611 0.000010
vn -0.938746 -0.344611 0.000010
vn -0.938746 -0.344611 0.000010
vn 0.150731 0.988575 -0.000002
vn 0.150731 0.988575 -0.000002
vn 0.452595 0.166147 -0.876101
vn 0.452595 0.166147 -0.876101
vn 0.754507 -0.656292 0.000000
vn 0.754507 -0.656292 0.000000
vn 0.452627 0.166158 0.876082
vn 0.452627 0.166158 0.876082
vn 1.000000 -0.000000 0.000000
vn 1.000000 -0.000000 0.000000
vn 1.000000 -0.000000 0.000000
vn 1.000000 -0.000000 0.000000
f 1/1/1 2/2/2 4/4/3 3/3/4
f 3/3/5 4/4/6 6/6/7 5/5/8
f 5/5/9 6/6/10 8/8/11 7/7/12
f 7/7/13 8/8/14 2/10/15 1/9/16
f 2/2/17 8/11/18 6/12/19 4/4/20
f 7/13/21 1/1/22 3/3/23 5/14/24
f 9/15/25 10/16/26 12/17/27 11/18/28
f 11/18/29 12/17/30 14/19/31 13/20/32
f 13/20/33 14/19/34 16/21/35 15/22/36
f 15/22/37 16/21/38 10/23/39 9/24/40
f 10/16/41 16/29/42 17/26/43 18/25/44
f 16/29/45 14/30/46 19/27/47 17/26/48
f 14/30/49 12/17/50 20/28/51 19/27/52
f 12/17/53 10/16/54 18/25/55 20/28/56
f 21/31/57 22/32/58 24/33/59 23/34/60
f 23/34/61 24/33/62 26/35/63 25/36/64
f 25/36/65 26/35/66 28/37/67 27/38/68
f 27/38/69 28/37/70 22/39/71 21/40/72
f 22/32/73 28/41/74 26/42/75 24/33/76
f 29/43/77 30/44/78 31/45/79 32/46/80
f 27/47/69 21/31/72 30/44/81 29/43/82
f 21/31/57 23/34/60 31/45/83 30/44/84
f 23/34/61 25/48/64 32/46/85 31/45/86
f 25/48/65 27/47/68 29/43/87 32/46/88
f 19/27/89 20/28/90 18/25/91 17/26/92
